<svg xmlns="http://www.w3.org/2000/svg" viewBox="0 0 44.99 58.27"><defs><style>.cls-1{stroke:#000;stroke-miterlimit:10;}</style></defs><title>B</title><g id="Capa_2" data-name="Capa 2"><g id="Capa_1-2" data-name="Capa 1"><path class="cls-1" d="M16.89,10.92a44.2,44.2,0,0,0-6,5.65,26.42,26.42,0,0,0-3.7,5.27,5.43,5.43,0,0,0-.78,3.71q.39,1.36,2.73,1a2,2,0,0,1-1.69,1.69,5.24,5.24,0,0,1-3-.26,6.73,6.73,0,0,1-2.83-2,5.11,5.11,0,0,1-1.1-3.74A10.22,10.22,0,0,1,2,17.87,30,30,0,0,1,5.65,13a44.44,44.44,0,0,1,5-4.78A48.9,48.9,0,0,1,16.5,4.12a29.47,29.47,0,0,1,6-2.76A15.36,15.36,0,0,1,28,.52a9,9,0,0,1,3.9,1.2,11.69,11.69,0,0,1,3.22,2.67A9.61,9.61,0,0,1,37,7.86a5.45,5.45,0,0,1-.1,3.58,14.13,14.13,0,0,1-1.75,3.22,30.44,30.44,0,0,1-2.31,2.83q-1.2,1.3-2.37,2.34t-2,1.69A7.78,7.78,0,0,1,32.27,23a10.25,10.25,0,0,1,2.89,3.09l4.39-1.56a16.69,16.69,0,0,1,4.26-.91c.26,0,.44.12.55.49a4,4,0,0,1,.13,1.3,3.44,3.44,0,0,1-.36,1.4,1.35,1.35,0,0,1-1,.78,34.11,34.11,0,0,0-4.1,1.17,25.76,25.76,0,0,0-3.25,1.36,20.45,20.45,0,0,1-2.11,6.57,43.35,43.35,0,0,1-4.29,6.83,50.38,50.38,0,0,1-5.82,6.4,45.67,45.67,0,0,1-6.76,5.23,15,15,0,0,1-6,2.5A5.93,5.93,0,0,1,6.53,57,3.88,3.88,0,0,1,5,53.62a10.16,10.16,0,0,1,2-5.39,41.59,41.59,0,0,1,4.55-5.59,72.46,72.46,0,0,1,5.78-5.43q3.05-2.57,6.14-4.71A59.31,59.31,0,0,1,29,29a1.21,1.21,0,0,0,.1-.52,3.83,3.83,0,0,0-.07-1,4,4,0,0,0-.36-1,1.4,1.4,0,0,0-.78-.71,3.53,3.53,0,0,0-2.54.19,15,15,0,0,0-3.15,1.76,30.55,30.55,0,0,0-3.31,2.73Q17.28,32,15.82,33.47t-2.57,2.79q-1.11,1.3-1.56,2A2.26,2.26,0,0,1,10,39.32,3.61,3.61,0,0,1,8.51,39a3.51,3.51,0,0,1-1.43-1.27,2.1,2.1,0,0,1-.13-1.92q.71-2.28,2-5.69t2.7-7q1.43-3.54,2.86-6.86T16.89,10.92Zm-6.5,41.6A13.42,13.42,0,0,0,13,50.86q1.56-1.2,3.31-2.83t3.58-3.48q1.82-1.85,3.35-3.67t2.6-3.38A11.08,11.08,0,0,0,27.23,35a55.36,55.36,0,0,0-4.65,3.38A69.51,69.51,0,0,0,17.35,43a47.28,47.28,0,0,0-4.48,5A13.26,13.26,0,0,0,10.39,52.52Zm6.24-26.13q.78-.84,2.54-2.54T23,20.08Q25,18,27,15.69a42.81,42.81,0,0,0,3.38-4.35,11.22,11.22,0,0,0,1.72-3.67,2,2,0,0,0-.94-2.41A2.7,2.7,0,0,0,29.37,5a15.43,15.43,0,0,0-2.73.65A23.85,23.85,0,0,0,23.56,7a20.82,20.82,0,0,0-3,1.76,4.29,4.29,0,0,1,1,.32,3.78,3.78,0,0,1,1,.68,2.48,2.48,0,0,1,.65.94,1.25,1.25,0,0,1-.06,1q-.85,1.63-1.72,3.54t-1.72,3.9L18.1,23Z"/></g></g></svg>