<svg xmlns="http://www.w3.org/2000/svg" viewBox="0 0 29.74 50.7"><defs><style>.cls-1{stroke:#000;stroke-miterlimit:10;}</style></defs><title>T</title><g id="Capa_2" data-name="Capa 2"><g id="Capa_1-2" data-name="Capa 1"><path class="cls-1" d="M21.44,6.85q2.73.52,4.23,1a4.91,4.91,0,0,1,2.27,1.43,11,11,0,0,1,.84,1.63l.26,1a9.85,9.85,0,0,1,.19,1q0,1-.58,1.1a7.08,7.08,0,0,0-3.9-2.08,26.86,26.86,0,0,0-6.69-.84l-1,1.56-1,1.56a83.17,83.17,0,0,0-5.46,11.18A88.12,88.12,0,0,0,6.95,36.81a27.3,27.3,0,0,0-.71,8.91q.45,3.57,3,3.83a3.49,3.49,0,0,1-2.86.58,6.19,6.19,0,0,1-3.51-2A8.16,8.16,0,0,1,.58,43.05a21.58,21.58,0,0,1,.36-5.95,59.17,59.17,0,0,1,2-7.77Q4.41,25,6.2,20.82t3.87-8.19a3.33,3.33,0,0,1,.33-.62,3.4,3.4,0,0,0,.32-.62,6.5,6.5,0,0,0-.81.06q-.49.07-1.07.2l-1.1.26a9.56,9.56,0,0,0-1,.33,2.56,2.56,0,0,0-.85.36,3.72,3.72,0,0,0-.46.36q-.39.65-.71.39a2.92,2.92,0,0,1-.78-.85,3.36,3.36,0,0,0-.33-.62,3.41,3.41,0,0,1-.33-.62A4.7,4.7,0,0,1,3,10.68a2,2,0,0,0-.13-.39A1.38,1.38,0,0,1,3,9a1.19,1.19,0,0,1,.39-.52A6.91,6.91,0,0,1,4,8.08,21.93,21.93,0,0,1,8.44,6.91l2.21-.26,2-.26h.45a3,3,0,0,0,.59-.06A53.36,53.36,0,0,1,17.93.93,1.84,1.84,0,0,1,19.82.61,4.8,4.8,0,0,1,22,1.84a4.21,4.21,0,0,1,1.3,1.82q.2.91-.32,1.23L22.09,6Z"/></g></g></svg>