<svg xmlns="http://www.w3.org/2000/svg" viewBox="0 0 194.21 58.27"><defs><style>.cls-1{stroke:#000;stroke-miterlimit:10;}</style></defs><title>Botticelli_logo</title><g id="Capa_2" data-name="Capa 2"><g id="Capa_1-2" data-name="Capa 1"><path class="cls-1" d="M16.89,10.92a44.2,44.2,0,0,0-6,5.65,26.42,26.42,0,0,0-3.7,5.27,5.43,5.43,0,0,0-.78,3.71q.39,1.36,2.73,1a2,2,0,0,1-1.69,1.69,5.24,5.24,0,0,1-3-.26,6.73,6.73,0,0,1-2.83-2,5.11,5.11,0,0,1-1.1-3.74A10.22,10.22,0,0,1,2,17.87,30,30,0,0,1,5.65,13a44.44,44.44,0,0,1,5-4.78A48.9,48.9,0,0,1,16.5,4.12a29.47,29.47,0,0,1,6-2.76A15.36,15.36,0,0,1,28,.52a9,9,0,0,1,3.9,1.2,11.69,11.69,0,0,1,3.22,2.67A9.61,9.61,0,0,1,37,7.86a5.45,5.45,0,0,1-.1,3.58,14.13,14.13,0,0,1-1.75,3.22,30.44,30.44,0,0,1-2.31,2.83q-1.2,1.3-2.37,2.34t-2,1.69A7.78,7.78,0,0,1,32.27,23a10.25,10.25,0,0,1,2.89,3.09l4.39-1.56a16.69,16.69,0,0,1,4.26-.91c.26,0,.44.12.55.49a4,4,0,0,1,.13,1.3,3.44,3.44,0,0,1-.36,1.4,1.35,1.35,0,0,1-1,.78,34.11,34.11,0,0,0-4.1,1.17,25.76,25.76,0,0,0-3.25,1.36,20.45,20.45,0,0,1-2.11,6.57,43.35,43.35,0,0,1-4.29,6.83,50.38,50.38,0,0,1-5.82,6.4,45.67,45.67,0,0,1-6.76,5.23,15,15,0,0,1-6,2.5A5.93,5.93,0,0,1,6.53,57,3.88,3.88,0,0,1,5,53.62a10.16,10.16,0,0,1,2-5.39,41.59,41.59,0,0,1,4.55-5.59,72.46,72.46,0,0,1,5.78-5.43q3.05-2.57,6.14-4.71A59.31,59.31,0,0,1,29,29a1.21,1.21,0,0,0,.1-.52,3.83,3.83,0,0,0-.07-1,4,4,0,0,0-.36-1,1.4,1.4,0,0,0-.78-.71,3.53,3.53,0,0,0-2.54.19,15,15,0,0,0-3.15,1.76,30.55,30.55,0,0,0-3.31,2.73Q17.28,32,15.82,33.47t-2.57,2.79q-1.11,1.3-1.56,2A2.26,2.26,0,0,1,10,39.32,3.61,3.61,0,0,1,8.51,39a3.51,3.51,0,0,1-1.43-1.27,2.1,2.1,0,0,1-.13-1.92q.71-2.28,2-5.69t2.7-7q1.43-3.54,2.86-6.86T16.89,10.92Zm-6.5,41.6A13.42,13.42,0,0,0,13,50.86q1.56-1.2,3.31-2.83t3.58-3.48q1.82-1.85,3.35-3.67t2.6-3.38A11.08,11.08,0,0,0,27.23,35a55.36,55.36,0,0,0-4.65,3.38A69.51,69.51,0,0,0,17.35,43a47.28,47.28,0,0,0-4.48,5A13.26,13.26,0,0,0,10.39,52.52Zm6.24-26.13q.78-.84,2.54-2.54T23,20.08Q25,18,27,15.69a42.81,42.81,0,0,0,3.38-4.35,11.22,11.22,0,0,0,1.72-3.67,2,2,0,0,0-.94-2.41A2.7,2.7,0,0,0,29.37,5a15.43,15.43,0,0,0-2.73.65A23.85,23.85,0,0,0,23.56,7a20.82,20.82,0,0,0-3,1.76,4.29,4.29,0,0,1,1,.32,3.78,3.78,0,0,1,1,.68,2.48,2.48,0,0,1,.65.94,1.25,1.25,0,0,1-.06,1q-.85,1.63-1.72,3.54t-1.72,3.9L18.1,23Z"/><path class="cls-1" d="M62.33,36.33a.68.68,0,0,1,.75.36,2,2,0,0,1,.23,1,2.22,2.22,0,0,1-.23,1q-.23.46-.55.46a15.58,15.58,0,0,1-2.79.13,11.73,11.73,0,0,1-3.06-.65q-.33.65-.84,1.79a21.2,21.2,0,0,1-1.27,2.34,17.33,17.33,0,0,1-1.76,2.34,7.89,7.89,0,0,1-2.24,1.79,4.09,4.09,0,0,1-2.63.36,11.8,11.8,0,0,1-3.18-.94,10.88,10.88,0,0,1-2.83-1.82,4.82,4.82,0,0,1-1.56-2.41,8.68,8.68,0,0,1-.19-3.83,22,22,0,0,1,1-4.06,20.22,20.22,0,0,1,1.72-3.64A11.86,11.86,0,0,1,44.84,28a4.67,4.67,0,0,1,.72-.58,4.68,4.68,0,0,0,.71-.58,19.48,19.48,0,0,1-.33-2.76,5,5,0,0,1,.65-2.7A3.16,3.16,0,0,1,49,20a9,9,0,0,1,3.9.29,9.2,9.2,0,0,1,3.74,2.15,6.56,6.56,0,0,1,2,4.16,15.68,15.68,0,0,1,0,4.62q-.36,2.21-.88,4.55a4.89,4.89,0,0,0,1.92.58A7.64,7.64,0,0,0,62.33,36.33ZM45.82,43.81a10.3,10.3,0,0,0,3.74-3.51A30.4,30.4,0,0,0,51.67,36a10.63,10.63,0,0,1-3.51-4,5.8,5.8,0,0,0-.84,1.75q-.52,1.43-1,3.28a24.73,24.73,0,0,0-.68,3.71A7.3,7.3,0,0,0,45.82,43.81Zm6.83-11.5a7.51,7.51,0,0,0,.52-2.18,14.23,14.23,0,0,0,0-2.54,16,16,0,0,0-.32-2.28,5.7,5.7,0,0,0-.49-1.46,5.2,5.2,0,0,0-.94,3.58A14,14,0,0,0,52.64,32.3Z"/><path class="cls-1" d="M83.91,10.46q2.73.52,4.23,1a4.91,4.91,0,0,1,2.27,1.43,11,11,0,0,1,.84,1.63l.26,1a9.85,9.85,0,0,1,.19,1q0,1-.58,1.1a7.08,7.08,0,0,0-3.9-2.08,26.86,26.86,0,0,0-6.69-.84l-1,1.56-1,1.56A83.17,83.17,0,0,0,73,29a88.12,88.12,0,0,0-3.58,11.44,27.3,27.3,0,0,0-.71,8.91q.45,3.57,3,3.83a3.49,3.49,0,0,1-2.86.58,6.19,6.19,0,0,1-3.51-2A8.16,8.16,0,0,1,63,46.67a21.58,21.58,0,0,1,.36-5.95,59.17,59.17,0,0,1,2-7.77q1.43-4.35,3.22-8.51t3.87-8.19a3.33,3.33,0,0,1,.33-.62,3.4,3.4,0,0,0,.32-.62,6.5,6.5,0,0,0-.81.06q-.49.07-1.07.2l-1.1.26a9.56,9.56,0,0,0-1,.33,2.56,2.56,0,0,0-.85.36,3.72,3.72,0,0,0-.46.36q-.39.65-.71.39a2.92,2.92,0,0,1-.78-.85A3.36,3.36,0,0,0,66,15.5a3.41,3.41,0,0,1-.33-.62,4.7,4.7,0,0,1-.19-.58,2,2,0,0,0-.13-.39,1.38,1.38,0,0,1,.13-1.3,1.19,1.19,0,0,1,.39-.52,6.91,6.91,0,0,1,.58-.39,21.93,21.93,0,0,1,4.42-1.17l2.21-.26,2-.26h.45a3,3,0,0,0,.59-.06,53.36,53.36,0,0,1,4.29-5.4,1.84,1.84,0,0,1,1.89-.33,4.8,4.8,0,0,1,2.21,1.24,4.21,4.21,0,0,1,1.3,1.82q.2.91-.32,1.23l-.91,1.14Z"/><path class="cls-1" d="M97.75,10.46q2.73.52,4.23,1a4.91,4.91,0,0,1,2.28,1.43,10.91,10.91,0,0,1,.84,1.63l.26,1a9.57,9.57,0,0,1,.19,1q0,1-.58,1.1a7.09,7.09,0,0,0-3.9-2.08,26.86,26.86,0,0,0-6.69-.84l-1,1.56-1,1.56A83.17,83.17,0,0,0,86.83,29a88.12,88.12,0,0,0-3.58,11.44,27.3,27.3,0,0,0-.71,8.91q.45,3.57,3,3.83a3.49,3.49,0,0,1-2.86.58,6.19,6.19,0,0,1-3.51-2,8.16,8.16,0,0,1-2.28-5.07,21.58,21.58,0,0,1,.36-5.95,59.17,59.17,0,0,1,2-7.77q1.43-4.35,3.22-8.51t3.87-8.19a3.33,3.33,0,0,1,.33-.62A3.4,3.4,0,0,0,87,15a6.5,6.5,0,0,0-.81.06q-.49.07-1.07.2l-1.1.26a9.56,9.56,0,0,0-1,.33,2.56,2.56,0,0,0-.85.36,3.72,3.72,0,0,0-.46.36q-.39.65-.71.39a2.92,2.92,0,0,1-.78-.85,3.36,3.36,0,0,0-.33-.62,3.41,3.41,0,0,1-.33-.62,4.7,4.7,0,0,1-.19-.58,2,2,0,0,0-.13-.39,1.38,1.38,0,0,1,.13-1.3,1.19,1.19,0,0,1,.39-.52,6.91,6.91,0,0,1,.58-.39,21.93,21.93,0,0,1,4.42-1.17L87,10.27l2-.26h.45a3,3,0,0,0,.59-.06,53.36,53.36,0,0,1,4.29-5.4,1.84,1.84,0,0,1,1.89-.33,4.8,4.8,0,0,1,2.21,1.24,4.21,4.21,0,0,1,1.3,1.82q.2.91-.32,1.23L98.4,9.65Z"/><path class="cls-1" d="M106.52,28.21a1,1,0,0,1,.78-.49,1.45,1.45,0,0,1,.81.16,1.7,1.7,0,0,1,.59.52.56.56,0,0,1,0,.65q-.72,1.5-2.08,3.9t-3,4.81a42.78,42.78,0,0,1-3.35,4.36,9.56,9.56,0,0,1-3.09,2.54,4.06,4.06,0,0,1-1.95.19,6.24,6.24,0,0,1-2.08-.62,4.8,4.8,0,0,1-1.62-1.3A2.62,2.62,0,0,1,91,41.07a21.89,21.89,0,0,1,.55-3.48A47.55,47.55,0,0,1,92.84,33q.81-2.44,1.79-4.81a28.43,28.43,0,0,1,2-4.06A1.46,1.46,0,0,1,98,23.59a5.29,5.29,0,0,1,2,.39,4.77,4.77,0,0,1,1.63,1,1.14,1.14,0,0,1,.33,1.36,69.22,69.22,0,0,0-4.16,9.13Q96.64,38.8,97,39.78q.26.71,1.1.16a10.5,10.5,0,0,0,2.11-2.11q1.27-1.56,2.89-4T106.52,28.21Zm-4.1-6.83a1.5,1.5,0,0,1-1.14.58,3.91,3.91,0,0,1-1.5-.16,3.7,3.7,0,0,1-1.3-.68,1.08,1.08,0,0,1-.49-1,14,14,0,0,1,.42-1.92q.29-1,.62-1.89t.65-1.59q.32-.71.52-1.1a1.66,1.66,0,0,1,1.43-.62,5.18,5.18,0,0,1,2,.36,4.73,4.73,0,0,1,1.66,1,1,1,0,0,1,.26,1.3q-.19.39-.62,1.14l-.88,1.56q-.46.81-.91,1.59T102.43,21.38Z"/><path class="cls-1" d="M128.75,26.78c.13-.17.34-.21.62-.1a4,4,0,0,1,.85.46,2.56,2.56,0,0,1,.68.68q.26.39.13.59l-2.63,4.45q-1.59,2.7-3.54,5.4a37,37,0,0,1-4.19,4.88A10.77,10.77,0,0,1,116,45.95a5.93,5.93,0,0,1-2.83,0A13.88,13.88,0,0,1,110,44.81,10.7,10.7,0,0,1,107.33,43a3.33,3.33,0,0,1-1.2-2.18,13,13,0,0,1,.23-3.9,29.24,29.24,0,0,1,1.27-4.52,38.41,38.41,0,0,1,2-4.55,29.44,29.44,0,0,1,2.54-4.06A18.53,18.53,0,0,1,115,20.73a7,7,0,0,1,2.83-1.56,2.45,2.45,0,0,1,1.5.19l1.89,1q.32-.52,1-1.4A3.45,3.45,0,0,1,123,18a2.08,2.08,0,0,1,1.82.06,6.7,6.7,0,0,1,1.85,1.2,5.78,5.78,0,0,1,1.23,1.56q.42.81,0,1.2a20.64,20.64,0,0,0-2.31,2.6,21,21,0,0,0-1.82,2.86,13.2,13.2,0,0,0-1.07,2.63,3.79,3.79,0,0,0-.13,1.92,1,1,0,0,1-1,.33,3.65,3.65,0,0,1-1.53-.52,4.78,4.78,0,0,1-1.37-1.2,2.81,2.81,0,0,1-.59-1.79,6.8,6.8,0,0,1,.16-1.37,11.65,11.65,0,0,1,.46-1.59,16.68,16.68,0,0,1,.65-1.56l.62-1.27a5.44,5.44,0,0,0-2,2,26.6,26.6,0,0,0-2.11,3.8,34.61,34.61,0,0,0-1.72,4.55,23.26,23.26,0,0,0-.91,4.29,5.65,5.65,0,0,0,.33,3q.52,1.07,2.08.68a7.52,7.52,0,0,0,3.22-1.82,29.5,29.5,0,0,0,3.22-3.45q1.63-2,3.28-4.45T128.75,26.78Z"/><path class="cls-1" d="M149.75,27.69a.75.75,0,0,1,.68-.2,2,2,0,0,1,.81.32,1.62,1.62,0,0,1,.58.68.91.91,0,0,1-.06.88,24.62,24.62,0,0,1-2.37,5,33.33,33.33,0,0,1-3.48,4.71,39.68,39.68,0,0,1-4.1,4,27,27,0,0,1-4.22,3,3.45,3.45,0,0,1-2.08.39,7.68,7.68,0,0,1-2.21-.62,11.3,11.3,0,0,1-2-1.14,11.73,11.73,0,0,1-1.5-1.23,5.33,5.33,0,0,1-1.37-3.48,15.94,15.94,0,0,1,.49-4.71,30.16,30.16,0,0,1,1.85-5.27A41.16,41.16,0,0,1,133.53,25a29.06,29.06,0,0,1,3.22-4.23,13.8,13.8,0,0,1,3.18-2.67,4.23,4.23,0,0,1,1.69-.49,4.41,4.41,0,0,1,1.63.26,8.43,8.43,0,0,1,1.72.84q.88.55,2,1.2a2.57,2.57,0,0,1,1.43,2.47,10.54,10.54,0,0,1-.55,2.53,23.55,23.55,0,0,1-1.56,3.8,19,19,0,0,1-2.47,3.71,7.22,7.22,0,0,1-3.28,2.31,6.14,6.14,0,0,1-2.28.2,7.91,7.91,0,0,1-2.15-.65,13.2,13.2,0,0,0-.71,1.92,17.6,17.6,0,0,0-.58,2.57,10.94,10.94,0,0,0-.13,2.31q.06,1,.78,1.14,1,.2,3-1.11a26.94,26.94,0,0,0,4-3.41,48.39,48.39,0,0,0,4.09-4.78A31.78,31.78,0,0,0,149.75,27.69Zm-6.5-4.81a9.06,9.06,0,0,0-1.66,1.72q-1,1.27-2,2.7T138,30a5,5,0,0,0-.68,1.56,2.52,2.52,0,0,0,2.18-.71,9.55,9.55,0,0,0,1.82-2.31,14.42,14.42,0,0,0,1.3-3A15,15,0,0,0,143.25,22.88Z"/><path class="cls-1" d="M157.42,54a2.25,2.25,0,0,1-.68,0l-1.07-.1a5.9,5.9,0,0,1-3.25-1.62,8.66,8.66,0,0,1-2.86-4.94,6.86,6.86,0,0,1-.1-.71q0-.39,0-.78a26,26,0,0,1,.42-5.65,55.4,55.4,0,0,1,1.85-7.35q1.23-4.1,2.92-8.22t3.77-8.29a64.39,64.39,0,0,1,4-6.92A25.41,25.41,0,0,1,166,5.07a1.86,1.86,0,0,1,1-.33,4,4,0,0,1,1.27.26,6,6,0,0,1,1.66,1l.39.2q1.76,1,1.89,2.08.06.33-.39.78a37.14,37.14,0,0,0-6.7,8.58,75.14,75.14,0,0,0-5.39,11.51,60.12,60.12,0,0,0-3.31,11.57,30.08,30.08,0,0,0-.65,7q.06.52.16,1.33t.29,1.92q.52,2.21,3.38,2.28A3.2,3.2,0,0,1,157.42,54Z"/><path class="cls-1" d="M170.94,54a2.26,2.26,0,0,1-.68,0l-1.07-.1a5.9,5.9,0,0,1-3.25-1.62,8.66,8.66,0,0,1-2.86-4.94,6.36,6.36,0,0,1-.1-.71c0-.26,0-.52,0-.78a26,26,0,0,1,.42-5.65,55.25,55.25,0,0,1,1.85-7.35q1.23-4.1,2.93-8.22t3.77-8.29a64.55,64.55,0,0,1,4-6.92,25.41,25.41,0,0,1,3.61-4.39,1.86,1.86,0,0,1,1-.33,4,4,0,0,1,1.27.26,6,6,0,0,1,1.66,1l.39.2q1.75,1,1.88,2.08.06.33-.39.78a37.09,37.09,0,0,0-6.69,8.58,75.05,75.05,0,0,0-5.4,11.51,60.27,60.27,0,0,0-3.32,11.57,30.18,30.18,0,0,0-.65,7l.16,1.33q.1.81.29,1.92.52,2.21,3.38,2.28A3.19,3.19,0,0,1,170.94,54Z"/><path class="cls-1" d="M191.41,28.21a1,1,0,0,1,.78-.49,1.45,1.45,0,0,1,.81.16,1.71,1.71,0,0,1,.58.52.55.55,0,0,1,0,.65q-.71,1.5-2.08,3.9t-3,4.81a42.71,42.71,0,0,1-3.35,4.36,9.56,9.56,0,0,1-3.09,2.54,4.05,4.05,0,0,1-1.95.19,6.25,6.25,0,0,1-2.08-.62,4.79,4.79,0,0,1-1.62-1.3,2.62,2.62,0,0,1-.58-1.85,22,22,0,0,1,.55-3.48q.49-2.18,1.3-4.62t1.79-4.81a28.47,28.47,0,0,1,2-4.06,1.46,1.46,0,0,1,1.33-.52,5.29,5.29,0,0,1,2,.39,4.77,4.77,0,0,1,1.63,1,1.14,1.14,0,0,1,.33,1.36,69.13,69.13,0,0,0-4.16,9.13q-1.11,3.28-.71,4.26.26.71,1.1.16a10.52,10.52,0,0,0,2.11-2.11q1.27-1.56,2.89-4T191.41,28.21Zm-4.09-6.83a1.51,1.51,0,0,1-1.14.58,3.9,3.9,0,0,1-1.49-.16,3.71,3.71,0,0,1-1.3-.68,1.08,1.08,0,0,1-.49-1,13.87,13.87,0,0,1,.42-1.92q.29-1,.62-1.89t.65-1.59q.33-.71.52-1.1a1.66,1.66,0,0,1,1.43-.62,5.19,5.19,0,0,1,2,.36,4.74,4.74,0,0,1,1.66,1,1,1,0,0,1,.26,1.3c-.13.26-.34.64-.62,1.14L189,18.42q-.45.81-.91,1.59T187.31,21.38Z"/></g></g></svg>