<svg xmlns="http://www.w3.org/2000/svg" viewBox="0 0 26 29.28"><defs><style>.cls-1{stroke:#000;stroke-miterlimit:10;}</style></defs><title>C</title><g id="Capa_2" data-name="Capa 2"><g id="Capa_1-2" data-name="Capa 1"><path class="cls-1" d="M23.18,9.46c.13-.17.34-.21.62-.1a4,4,0,0,1,.85.46,2.56,2.56,0,0,1,.68.68q.26.39.13.59l-2.63,4.45q-1.59,2.7-3.54,5.4a37,37,0,0,1-4.19,4.88,10.77,10.77,0,0,1-4.65,2.83,5.93,5.93,0,0,1-2.83,0,13.88,13.88,0,0,1-3.18-1.11,10.7,10.7,0,0,1-2.67-1.82,3.33,3.33,0,0,1-1.2-2.18,13,13,0,0,1,.23-3.9,29.24,29.24,0,0,1,1.27-4.52,38.41,38.41,0,0,1,2-4.55A29.44,29.44,0,0,1,6.61,6.46,18.53,18.53,0,0,1,9.43,3.41a7,7,0,0,1,2.83-1.56,2.45,2.45,0,0,1,1.5.19l1.89,1q.32-.52,1-1.4a3.45,3.45,0,0,1,.84-.94,2.08,2.08,0,0,1,1.82.06,6.7,6.7,0,0,1,1.85,1.2,5.78,5.78,0,0,1,1.23,1.56q.42.81,0,1.2A20.64,20.64,0,0,0,20,7.31a21,21,0,0,0-1.82,2.86,13.2,13.2,0,0,0-1.07,2.63A3.79,3.79,0,0,0,17,14.72,1,1,0,0,1,16,15a3.65,3.65,0,0,1-1.53-.52,4.78,4.78,0,0,1-1.37-1.2,2.81,2.81,0,0,1-.59-1.79,6.8,6.8,0,0,1,.16-1.37,11.65,11.65,0,0,1,.46-1.59A16.68,16.68,0,0,1,13.79,7l.62-1.27a5.44,5.44,0,0,0-2,2,26.6,26.6,0,0,0-2.11,3.8,34.61,34.61,0,0,0-1.72,4.55,23.26,23.26,0,0,0-.91,4.29,5.65,5.65,0,0,0,.33,3q.52,1.07,2.08.68a7.52,7.52,0,0,0,3.22-1.82,29.5,29.5,0,0,0,3.22-3.45q1.63-2,3.28-4.45T23.18,9.46Z"/></g></g></svg>