<svg xmlns="http://www.w3.org/2000/svg" viewBox="0 0 24.51 29.99"><defs><style>.cls-1{stroke:#000;stroke-miterlimit:10;}</style></defs><title>E</title><g id="Capa_2" data-name="Capa 2"><g id="Capa_1-2" data-name="Capa 1"><path class="cls-1" d="M21.84,10.61a.75.75,0,0,1,.68-.2,2,2,0,0,1,.81.32,1.62,1.62,0,0,1,.58.68.91.91,0,0,1-.06.88,24.62,24.62,0,0,1-2.37,5A33.33,33.33,0,0,1,18,22.05a39.68,39.68,0,0,1-4.1,4,27,27,0,0,1-4.22,3,3.45,3.45,0,0,1-2.08.39,7.68,7.68,0,0,1-2.21-.62,11.3,11.3,0,0,1-2-1.14,11.73,11.73,0,0,1-1.5-1.23A5.33,5.33,0,0,1,.52,23,15.94,15.94,0,0,1,1,18.28,30.16,30.16,0,0,1,2.86,13,41.16,41.16,0,0,1,5.63,7.88,29.06,29.06,0,0,1,8.84,3.66,13.8,13.8,0,0,1,12,1,4.23,4.23,0,0,1,13.72.5a4.41,4.41,0,0,1,1.63.26,8.43,8.43,0,0,1,1.72.84q.88.55,2,1.2a2.57,2.57,0,0,1,1.43,2.47,10.54,10.54,0,0,1-.55,2.53,23.55,23.55,0,0,1-1.56,3.8,19,19,0,0,1-2.47,3.71,7.22,7.22,0,0,1-3.28,2.31,6.14,6.14,0,0,1-2.28.2,7.91,7.91,0,0,1-2.15-.65,13.2,13.2,0,0,0-.71,1.92,17.6,17.6,0,0,0-.58,2.57A10.94,10.94,0,0,0,6.76,24q.06,1,.78,1.14,1,.2,3-1.11a26.94,26.94,0,0,0,4-3.41,48.39,48.39,0,0,0,4.09-4.78A31.78,31.78,0,0,0,21.84,10.61ZM15.34,5.8a9.06,9.06,0,0,0-1.66,1.72q-1,1.27-2,2.7t-1.62,2.67a5,5,0,0,0-.68,1.56,2.52,2.52,0,0,0,2.18-.71,9.55,9.55,0,0,0,1.82-2.31,14.42,14.42,0,0,0,1.3-3A15,15,0,0,0,15.34,5.8Z"/></g></g></svg>