<svg xmlns="http://www.w3.org/2000/svg" viewBox="0 0 18.84 32.86"><defs><style>.cls-1{stroke:#000;stroke-miterlimit:10;}</style></defs><title>I</title><g id="Capa_2" data-name="Capa 2"><g id="Capa_1-2" data-name="Capa 1"><path class="cls-1" d="M16,15.68a1,1,0,0,1,.78-.49,1.45,1.45,0,0,1,.81.16,1.7,1.7,0,0,1,.59.52.56.56,0,0,1,0,.65q-.72,1.5-2.08,3.9t-3,4.81a42.78,42.78,0,0,1-3.35,4.36,9.56,9.56,0,0,1-3.09,2.54,4.06,4.06,0,0,1-1.95.19,6.24,6.24,0,0,1-2.08-.62,4.8,4.8,0,0,1-1.62-1.3,2.62,2.62,0,0,1-.58-1.85,21.89,21.89,0,0,1,.55-3.48,47.55,47.55,0,0,1,1.3-4.62Q3.17,18,4.15,15.65a28.43,28.43,0,0,1,2-4.06,1.46,1.46,0,0,1,1.33-.52,5.29,5.29,0,0,1,2,.39,4.77,4.77,0,0,1,1.63,1,1.14,1.14,0,0,1,.33,1.36A69.22,69.22,0,0,0,7.27,23q-1.11,3.28-.71,4.26.26.71,1.1.16A10.5,10.5,0,0,0,9.77,25.3q1.27-1.56,2.89-4T16,15.68Zm-4.1-6.83a1.5,1.5,0,0,1-1.14.58,3.91,3.91,0,0,1-1.5-.16A3.7,3.7,0,0,1,8,8.59a1.08,1.08,0,0,1-.49-1A14,14,0,0,1,7.95,5.7q.29-1,.62-1.89t.65-1.59q.32-.71.52-1.1A1.66,1.66,0,0,1,11.17.5a5.18,5.18,0,0,1,2,.36,4.73,4.73,0,0,1,1.66,1,1,1,0,0,1,.26,1.3q-.19.39-.62,1.14L13.64,5.9q-.46.81-.91,1.59T11.95,8.86Z"/></g></g></svg>