<svg xmlns="http://www.w3.org/2000/svg" viewBox="0 0 23.78 50.31"><defs><style>.cls-1{stroke:#000;stroke-miterlimit:10;}</style></defs><title>L</title><g id="Capa_2" data-name="Capa 2"><g id="Capa_1-2" data-name="Capa 1"><path class="cls-1" d="M8.52,49.77a2.26,2.26,0,0,1-.68,0l-1.07-.1a5.9,5.9,0,0,1-3.25-1.62A8.66,8.66,0,0,1,.66,43.14a6.36,6.36,0,0,1-.1-.71c0-.26,0-.52,0-.78A26,26,0,0,1,.95,36,55.25,55.25,0,0,1,2.8,28.65Q4,24.55,5.73,20.42T9.5,12.14a64.55,64.55,0,0,1,4-6.92A25.41,25.41,0,0,1,17.1.83a1.86,1.86,0,0,1,1-.33,4,4,0,0,1,1.27.26,6,6,0,0,1,1.66,1l.39.2Q23.14,3,23.27,4q.06.33-.39.78a37.09,37.09,0,0,0-6.69,8.58,75.05,75.05,0,0,0-5.4,11.51A60.27,60.27,0,0,0,7.48,36.45a30.18,30.18,0,0,0-.65,7L7,44.8q.1.81.29,1.92.52,2.21,3.38,2.28A3.19,3.19,0,0,1,8.52,49.77Z"/></g></g></svg>