<svg xmlns="http://www.w3.org/2000/svg" viewBox="0 0 24.26 28.33"><defs><style>.cls-1{stroke:#000;stroke-miterlimit:10;}</style></defs><title>O</title><g id="Capa_2" data-name="Capa 2"><g id="Capa_1-2" data-name="Capa 1"><path class="cls-1" d="M22.79,16.88a.68.68,0,0,1,.75.36,2,2,0,0,1,.23,1,2.22,2.22,0,0,1-.23,1q-.23.46-.55.46a15.58,15.58,0,0,1-2.79.13,11.73,11.73,0,0,1-3.06-.65q-.33.65-.84,1.79A21.2,21.2,0,0,1,15,23.28a17.33,17.33,0,0,1-1.76,2.34A7.89,7.89,0,0,1,11,27.41a4.09,4.09,0,0,1-2.63.36,11.8,11.8,0,0,1-3.18-.94A10.88,10.88,0,0,1,2.38,25,4.82,4.82,0,0,1,.82,22.6a8.68,8.68,0,0,1-.19-3.83,22,22,0,0,1,1-4.06,20.22,20.22,0,0,1,1.72-3.64A11.86,11.86,0,0,1,5.3,8.56,4.67,4.67,0,0,1,6,8a4.68,4.68,0,0,0,.71-.58,19.48,19.48,0,0,1-.33-2.76,5,5,0,0,1,.65-2.7A3.16,3.16,0,0,1,9.5.6a9,9,0,0,1,3.9.29A9.2,9.2,0,0,1,17.13,3a6.56,6.56,0,0,1,2,4.16,15.68,15.68,0,0,1,0,4.62q-.36,2.21-.88,4.55a4.89,4.89,0,0,0,1.92.58A7.64,7.64,0,0,0,22.79,16.88ZM6.28,24.35A10.3,10.3,0,0,0,10,20.85a30.4,30.4,0,0,0,2.11-4.29,10.63,10.63,0,0,1-3.51-4,5.8,5.8,0,0,0-.84,1.75q-.52,1.43-1,3.28a24.73,24.73,0,0,0-.68,3.71A7.3,7.3,0,0,0,6.28,24.35Zm6.83-11.5a7.51,7.51,0,0,0,.52-2.18,14.23,14.23,0,0,0,0-2.54,16,16,0,0,0-.32-2.28,5.7,5.7,0,0,0-.49-1.46A5.2,5.2,0,0,0,11.9,8,14,14,0,0,0,13.1,12.85Z"/></g></g></svg>